HIERARCHY
ROOT Hips
{
	OFFSET 0.000000 0.000000 0.000000
	CHANNELS 6 Xposition Yposition Zposition Xrotation Yrotation Zrotation
	JOINT LeftUpLeg_virtual
	{
		OFFSET 0.000000 0.000000 0.000000
		CHANNELS 3 Xrotation Yrotation Zrotation
		JOINT LeftUpLeg
		{
			OFFSET 11.394100 -6.187798 -0.413800
			CHANNELS 3 Xrotation Yrotation Zrotation
			JOINT LeftLeg
			{
				OFFSET 0.430247 -32.302673 3.732800
				CHANNELS 3 Xrotation Yrotation Zrotation
				JOINT LeftFoot
				{
					OFFSET -0.430247 -48.264931 -6.423300
					CHANNELS 3 Xrotation Yrotation Zrotation
					JOINT LeftToeBase
					{
						OFFSET 4.230900 -16.068199 23.438400
						CHANNELS 3 Xrotation Yrotation Zrotation
						JOINT LeftToe_End
						{
							OFFSET 4.510700 0.695400 19.974600
							CHANNELS 3 Xrotation Yrotation Zrotation
							End Site
							{
								OFFSET 0 0 0
							}
						}
					}
				}
			}
		}
	}
	JOINT RightUpLeg_virtual
	{
		OFFSET 0.000000 0.000000 0.000000
		CHANNELS 3 Xrotation Yrotation Zrotation
		JOINT RightUpLeg
		{
			OFFSET -11.333700 -6.187798 -0.413800
			CHANNELS 3 Xrotation Yrotation Zrotation
			JOINT RightLeg
			{
				OFFSET -0.430392 -32.302628 3.733000
				CHANNELS 3 Xrotation Yrotation Zrotation
				JOINT RightFoot
				{
					OFFSET 0.430392 -48.264973 -6.423500
					CHANNELS 3 Xrotation Yrotation Zrotation
					JOINT RightToeBase
					{
						OFFSET -4.230900 -16.068199 23.438400
						CHANNELS 3 Xrotation Yrotation Zrotation
						JOINT RightToe_End
						{
							OFFSET -4.510700 0.695400 19.974600
							CHANNELS 3 Xrotation Yrotation Zrotation
							End Site
							{
								OFFSET 0 0 0
							}
						}
					}
				}
			}
		}
	}
	JOINT Spine_virtual
	{
		OFFSET 0.000000 0.000000 0.000000
		CHANNELS 3 Xrotation Yrotation Zrotation
		JOINT Spine
		{
			OFFSET -0.002400 12.777504 0.315300
			CHANNELS 3 Xrotation Yrotation Zrotation
			JOINT Spine1
			{
				OFFSET -0.002067 5.816869 0.032633
				CHANNELS 3 Xrotation Yrotation Zrotation
				JOINT Spine1_split
				{
					OFFSET -0.002067 5.816869 0.032633
					CHANNELS 3 Xrotation Yrotation Zrotation
					JOINT Spine2
					{
						OFFSET -0.002067 5.816869 0.032633
						CHANNELS 3 Xrotation Yrotation Zrotation
						JOINT Neck_virtual
						{
							OFFSET 0.000000 0.000000 0.000000
							CHANNELS 3 Xrotation Yrotation Zrotation
							JOINT Neck
							{
								OFFSET -0.003700 21.199493 -0.826900
								CHANNELS 3 Xrotation Yrotation Zrotation
								JOINT Head
								{
									OFFSET 0.000000 20.442200 4.834800
									CHANNELS 3 Xrotation Yrotation Zrotation
									JOINT HeadTop_End
									{
										OFFSET 0.000000 34.668396 4.968400
										CHANNELS 3 Xrotation Yrotation Zrotation
										End Site
										{
											OFFSET 0 0 0
										}
									}
								}
							}
						}
						JOINT LeftShoulder_virtual
						{
							OFFSET 0.000000 0.000000 0.000000
							CHANNELS 3 Xrotation Yrotation Zrotation
							JOINT LeftShoulder
							{
								OFFSET 3.288150 8.794197 -1.372250
								CHANNELS 3 Xrotation Yrotation Zrotation
								JOINT LeftShoulder_split
								{
									OFFSET 3.288150 8.794197 -1.372250
									CHANNELS 3 Xrotation Yrotation Zrotation
									JOINT LeftArm
									{
										OFFSET 11.953299 -2.279007 -0.146200
										CHANNELS 3 Xrotation Yrotation Zrotation
										JOINT LeftForeArm
										{
											OFFSET 18.448900 0.000000 0.000000
											CHANNELS 3 Xrotation Yrotation Zrotation
											JOINT LeftHand
											{
												OFFSET 29.527798 0.000000 0.000000
												CHANNELS 3 Xrotation Yrotation Zrotation
												End Site
												{
													OFFSET 0 0 0
												}
											}
										}
									}
								}
							}
						}
						JOINT RightShoulder_virtual
						{
							OFFSET 0.000000 0.000000 0.000000
							CHANNELS 3 Xrotation Yrotation Zrotation
							JOINT RightShoulder
							{
								OFFSET -3.249400 8.794197 -1.372250
								CHANNELS 3 Xrotation Yrotation Zrotation
								JOINT RightShoulder_split
								{
									OFFSET -3.249400 8.794197 -1.372250
									CHANNELS 3 Xrotation Yrotation Zrotation
									JOINT RightArm
									{
										OFFSET -11.953299 -2.279007 -0.146200
										CHANNELS 3 Xrotation Yrotation Zrotation
										JOINT RightForeArm
										{
											OFFSET -18.448900 0.000000 0.000000
											CHANNELS 3 Xrotation Yrotation Zrotation
											JOINT RightHand
											{
												OFFSET -29.527802 0.000000 0.000000
												CHANNELS 3 Xrotation Yrotation Zrotation
												End Site
												{
													OFFSET 0 0 0
												}
											}
										}
									}
								}
							}
						}
					}
				}
			}
		}
	}
}
MOTION
Frames: 8
Frame Time: 0.03333333
0.048097 88.867180 -1.285038 0.000000 0.000000 0.000000 -5.381330 -62.593411 -4.097928 -36.593497 9.677202 28.800363 42.655617 -6.656728 -8.112832 -5.749802 -3.535644 -5.405743 -0.397628 1.513871 1.231661 0.000000 0.000000 0.000000 -6.141195 -60.830935 -4.189485 -30.193941 -10.579993 -20.005435 40.616174 2.706551 -9.168040 -11.811428 4.393668 18.454155 2.695751 -1.555804 -2.094265 0.000000 0.000000 0.000000 -5.553824 -60.450261 -3.988488 10.583181 2.162687 -0.922900 7.483769 0.395328 -5.107691 0.472963 -1.695492 1.113562 0.000000 0.000000 0.000000 7.893120 0.764495 -4.950119 -25.415762 23.233612 11.281501 -3.517357 26.341407 -3.106831 0.000000 0.000000 0.000000 9.017077 0.448705 -4.645011 -5.708249 -10.082568 -1.660076 -2.276348 -1.433446 -2.361691 -17.998230 3.489235 -34.999911 4.888792 -49.561372 2.811493 0.000000 0.000000 0.000000 8.471396 0.450689 -4.936445 -4.122442 11.639425 1.926605 1.803295 1.006535 0.956935 -38.809661 -25.178813 32.490913 -157.308450 64.967202 157.853636 0.000000 0.000000 0.000000 
-0.012466 88.784760 -1.359833 0.000000 0.000000 0.000000 -5.005998 -62.496572 -3.388042 -36.336722 9.334624 28.182447 42.254583 -6.292143 -8.156249 -5.614789 -3.292069 -5.570679 -0.084543 1.511296 1.132282 0.000000 0.000000 0.000000 -5.821671 -60.989300 -3.507299 -30.717225 -10.248833 -20.647510 40.736488 2.907468 -9.157212 -11.964464 4.797015 18.623144 2.625979 -1.465993 -2.056788 0.000000 0.000000 0.000000 -4.728879 -60.233785 -3.059712 10.433613 2.233394 -0.704447 7.966120 0.498261 -4.988124 0.432270 -1.646581 1.177169 0.000000 0.000000 0.000000 8.226058 0.898465 -4.885203 -23.435306 23.321003 11.662428 -2.742993 25.793021 -2.901893 0.000000 0.000000 0.000000 9.400926 0.496692 -4.549043 -5.841152 -10.680015 -2.412975 -2.130031 -1.207614 -2.349725 -16.496398 4.808792 -34.971050 5.258380 -49.919831 2.855602 0.000000 0.000000 0.000000 8.827531 0.569753 -4.746607 -4.193048 11.742469 2.587236 1.400094 0.842301 0.848665 -39.486085 -24.689027 31.117338 -157.512618 64.179886 158.317556 0.000000 0.000000 0.000000 
-0.094167 88.901733 -1.388256 0.000000 0.000000 0.000000 -4.308544 -62.464874 -2.353116 -35.979271 8.994661 27.375033 41.553095 -5.959677 -8.063740 -5.324459 -3.127739 -5.924442 0.215260 1.507512 1.065002 0.000000 0.000000 0.000000 -5.314750 -61.080449 -2.607566 -31.119875 -10.104812 -21.223112 40.591527 2.935891 -9.047751 -11.922319 5.043299 18.755076 2.431016 -1.416314 -2.053974 0.000000 0.000000 0.000000 -3.825676 -59.968337 -2.028703 10.320346 2.244231 -0.628755 8.380662 0.561003 -4.867337 0.457521 -1.885888 1.218859 0.000000 0.000000 0.000000 8.583902 0.987873 -4.787314 -21.983201 23.436510 11.727950 -2.108103 25.042154 -2.901401 0.000000 0.000000 0.000000 9.747721 0.505733 -4.409408 -5.956510 -11.141846 -2.955305 -2.146788 -0.789422 -2.373749 -15.248011 5.572714 -35.050526 5.742079 -49.065634 3.027371 0.000000 0.000000 0.000000 9.074069 0.638844 -4.549032 -4.254971 11.428816 3.124568 0.878520 0.682717 0.946453 -39.998049 -23.468868 30.439172 -157.029888 64.230006 157.972877 0.000000 0.000000 0.000000 
-0.168755 89.097931 -1.375519 0.000000 0.000000 0.000000 -3.580171 -62.415266 -1.305111 -35.676059 8.651068 26.523879 40.926736 -5.725818 -7.841920 -5.039568 -3.062303 -6.430735 0.317463 1.504315 1.085155 0.000000 0.000000 0.000000 -4.763788 -61.115098 -1.689560 -31.429040 -10.037385 -21.635053 40.481148 2.768887 -8.892522 -11.906079 5.072343 18.813427 2.221748 -1.410848 -2.086150 0.000000 0.000000 0.000000 -3.117083 -59.657604 -1.154875 10.300949 2.185165 -0.692583 8.721952 0.550617 -4.782231 0.564995 -2.254822 1.170730 0.000000 0.000000 0.000000 8.964320 1.000805 -4.714544 -21.156342 23.579654 11.578570 -1.561026 24.348397 -3.123603 0.000000 0.000000 0.000000 10.069689 0.444912 -4.281562 -6.033166 -11.464220 -3.268379 -2.234286 -0.305104 -2.526016 -14.539615 5.778954 -34.966146 6.038223 -47.318625 3.132852 0.000000 0.000000 0.000000 9.263432 0.617857 -4.402487 -4.296017 10.846790 3.461693 0.462810 0.561772 1.138715 -40.451242 -22.094969 30.463562 -156.729455 64.478365 157.684548 0.000000 0.000000 0.000000 
-0.224607 89.249115 -1.316116 0.000000 0.000000 0.000000 -2.938689 -62.328044 -0.393357 -35.545978 8.325909 25.746589 40.648597 -5.553897 -7.572139 -4.892003 -3.075342 -6.959034 0.190146 1.511583 1.177210 0.000000 0.000000 0.000000 -4.226347 -61.020944 -0.863906 -31.629588 -9.962319 -21.889764 40.458731 2.459191 -8.754425 -12.022650 4.910610 18.843548 2.035835 -1.427034 -2.148605 0.000000 0.000000 0.000000 -2.735263 -59.384984 -0.547384 10.385811 2.062572 -0.869391 8.971272 0.461711 -4.765453 0.743791 -2.684355 1.102409 0.000000 0.000000 0.000000 9.342680 0.932356 -4.697588 -20.827180 23.734825 11.342055 -1.070772 23.860064 -3.501892 0.000000 0.000000 0.000000 10.370339 0.328784 -4.223941 -6.065990 -11.589178 -3.413511 -2.303496 0.077502 -2.671542 -14.331473 5.646805 -34.625736 5.941934 -45.258404 3.019076 0.000000 0.000000 0.000000 9.451349 0.508589 -4.364976 -4.325926 10.195957 3.590527 0.412283 0.594487 1.395925 -40.811815 -21.158249 31.122399 -157.164073 64.466276 158.004610 0.000000 0.000000 0.000000 
-0.261000 89.306038 -1.217060 0.000000 0.000000 0.000000 -2.454368 -62.195224 0.323195 -35.647410 8.073675 25.120507 40.715164 -5.414383 -7.339222 -4.938756 -3.093566 -7.355763 -0.034289 1.537049 1.291404 0.000000 0.000000 0.000000 -3.698930 -60.819160 -0.141720 -31.736908 -9.813232 -22.024686 40.485936 2.088453 -8.678115 -12.264597 4.625233 18.907932 1.940929 -1.460099 -2.239302 0.000000 0.000000 0.000000 -2.599914 -59.151405 -0.133119 10.542995 1.905985 -1.110699 9.123984 0.326854 -4.826633 0.729254 -2.843984 1.080732 0.000000 0.000000 0.000000 9.660582 0.805200 -4.756145 -20.755198 23.861782 11.106694 -0.501220 23.574671 -3.906944 0.000000 0.000000 0.000000 10.631148 0.185373 -4.267570 -6.075648 -11.524187 -3.470137 -2.328358 0.389535 -2.947605 -14.460366 5.526929 -34.085168 5.409997 -43.370704 2.667009 0.000000 0.000000 0.000000 9.636305 0.341146 -4.451270 -4.353588 9.689813 3.575562 0.668398 0.552119 1.642268 -41.002783 -20.931846 32.248188 -158.296901 64.159614 158.923257 0.000000 0.000000 0.000000 
-0.305018 89.266464 -1.074928 0.000000 0.000000 0.000000 -2.066952 -61.989834 0.909276 -35.877010 7.982706 24.704688 40.959934 -5.292962 -7.215869 -5.166829 -3.120892 -7.527555 -0.251220 1.567273 1.401204 0.000000 0.000000 0.000000 -3.202000 -60.645065 0.504563 -31.836171 -9.547053 -22.135525 40.526316 1.765230 -8.678830 -12.539216 4.305090 19.038278 1.967702 -1.482288 -2.343725 0.000000 0.000000 0.000000 -2.550451 -58.990261 0.224268 10.732769 1.749530 -1.377579 9.190314 0.185070 -4.946488 0.634309 -2.853626 1.077403 0.000000 0.000000 0.000000 9.883595 0.659975 -4.883925 -20.682281 23.940284 10.924135 0.124083 23.485628 -4.203135 0.000000 0.000000 0.000000 10.818188 0.050948 -4.401592 -6.065888 -11.375401 -3.470281 -2.266177 0.669031 -3.338177 -14.697377 5.635364 -33.470662 4.627134 -41.950540 2.184973 0.000000 0.000000 0.000000 9.815924 0.165721 -4.622047 -4.385644 9.483307 3.456646 1.128887 0.378231 1.838511 -41.049997 -21.349069 33.502795 -159.692172 63.710782 160.027043 0.000000 0.000000 0.000000 
-0.353739 89.171242 -0.914959 0.000000 0.000000 0.000000 -1.637208 -61.792865 1.524561 -36.152926 8.058581 24.487994 41.226834 -5.185972 -7.225285 -5.473167 -3.154334 -7.449320 -0.338872 1.592414 1.472680 0.000000 0.000000 0.000000 -2.692797 -60.483354 1.143828 -31.982965 -9.203782 -22.335902 40.554569 1.534390 -8.730938 -12.749350 3.992378 19.255850 2.084428 -1.488928 -2.460202 0.000000 0.000000 0.000000 -2.399455 -58.889304 0.696896 10.925336 1.624125 -1.633867 9.200944 0.078037 -5.090337 0.525631 -2.762936 1.109399 0.000000 0.000000 0.000000 10.013874 0.539823 -5.031108 -20.500272 23.942933 10.806345 0.738498 23.506118 -4.348158 0.000000 0.000000 0.000000 10.932264 -0.043910 -4.585013 -6.050567 -11.227913 -3.391924 -2.158684 0.849070 -3.633773 -14.946445 6.050561 -33.042874 3.798458 -41.045072 1.704684 0.000000 0.000000 0.000000 9.968664 0.038312 -4.822883 -4.413097 9.641364 3.306523 1.564697 0.106082 2.030127 -40.848100 -22.094456 34.693331 -160.775154 63.428579 160.769826 0.000000 0.000000 0.000000 
